<svg xmlns="http://www.w3.org/2000/svg" width="42" height="42"><g stroke-linecap="round" stroke-miterlimit="2.5" stroke-width=".01" aria-label="×3" style="shape-inside:url(#rect1578);white-space:pre" transform="translate(.016 2.76)"><path d="M7.736 24.832q-.352 0-.64-.288t-.288-.672.288-.672l9.696-9.632q.288-.288.704-.288.384 0 .64.288.288.288.288.64t-.288.704l-9.696 9.6q-.32.32-.704.32zm8.96-.288-9.344-9.6q-.256-.32-.256-.672 0-.384.256-.64.256-.288.608-.288.416 0 .704.32l9.312 9.568q.32.288.32.672 0 .48-.32.704t-.608.224q-.32 0-.672-.288zM22.872 26.304q.16 0 .32.064.192.064.448.288.672.704 1.6 1.088.928.352 2.112.352 1.568 0 2.848-.704 1.312-.704 2.08-1.952.768-1.28.768-2.912 0-1.856-.832-2.976-.8-1.152-2.08-1.696-1.248-.576-2.56-.576-.352 0-.704.064-.32.032-.608.096t-.448.064q-.416 0-.64-.256-.224-.288-.224-.704 0-.224.096-.384.096-.192.256-.416L31.8 8.672l.384.512h-9.696q-.384 0-.672-.256-.256-.288-.256-.672t.256-.64q.288-.256.672-.256H33.24q.544 0 .768.352.224.32.224.64 0 .192-.096.384-.096.16-.256.352l-6.496 7.072-.704-.416q.096-.096.64-.192.576-.128.896-.128 1.76 0 3.296.832 1.568.832 2.528 2.4.992 1.536.992 3.808 0 2.24-1.056 3.936-1.056 1.664-2.848 2.592t-3.968.928q-1.312 0-2.592-.448t-2.24-1.344q-.224-.192-.32-.384t-.096-.384q0-.384.256-.704.288-.352.704-.352z"/></g></svg>