<svg xmlns="http://www.w3.org/2000/svg" width="42" height="42"><path fill="red" stroke-linecap="round" stroke-miterlimit="2.5" stroke-width=".01" d="M26.869 7.185a.981.981 0 0 0-.592.176l-5.344 3.55c-.34.193-.511.46-.511.801 0 .256.095.49.287.703.213.214.447.32.703.32a.893.893 0 0 0 .545-.19L25.86 9.93v18.71c0 .255.095.479.287.671s.438.287.737.287.544-.095.736-.287.287-.416.287-.672V8.16a.932.932 0 0 0-.223-.639c-.149-.192-.363-.299-.64-.32a.898.898 0 0 0-.176-.016zm-10.285 5.848a.96.96 0 0 0-.705.287l-4.18 4.152-3.947-4.056a.914.914 0 0 0-.705-.32.788.788 0 0 0-.608.288.87.87 0 0 0-.255.64c0 .236.085.46.255.673l3.96 4.068-4.215 4.188c-.192.192-.287.416-.287.672s.095.48.287.671c.192.192.406.288.64.288.256 0 .49-.107.703-.32l4.188-4.147 4.068 4.18c.235.191.459.287.672.287.192 0 .396-.074.61-.223.213-.15.32-.385.32-.705 0-.256-.107-.48-.32-.672l-4.045-4.156 4.205-4.164c.192-.235.287-.469.287-.704 0-.234-.095-.448-.287-.64a.821.821 0 0 0-.64-.287z" aria-label="×1" style="shape-inside:url(#rect1578);white-space:pre" transform="translate(.992 2.608)"/></svg>