<svg xmlns="http://www.w3.org/2000/svg" width="42" height="42"><g fill="#0ff" stroke-linecap="round" stroke-miterlimit="2.5" stroke-width=".01" aria-label="×1" style="shape-inside:url(#rect1578);white-space:pre" transform="translate(.992 2.608)"><path d="M10.2 24.832q-.352 0-.64-.288t-.288-.672.288-.672l9.696-9.632q.288-.288.704-.288.384 0 .64.288.288.288.288.64t-.288.704l-9.696 9.6q-.32.32-.704.32zm8.96-.288-9.344-9.6q-.256-.32-.256-.672 0-.384.256-.64.256-.288.608-.288.416 0 .704.32l9.312 9.568q.32.288.32.672 0 .48-.32.704t-.608.224q-.32 0-.672-.288zM29.72 29.6q-.448 0-.736-.288t-.288-.672V9.376l.352.32-4.256 2.848q-.256.192-.544.192-.384 0-.704-.32-.288-.32-.288-.704 0-.512.512-.8l5.344-3.552q.192-.128.384-.16.224-.032.384 0 .416.032.64.32.224.256.224.64v20.48q0 .384-.288.672t-.736.288z"/></g></svg>