<svg xmlns="http://www.w3.org/2000/svg" width="42" height="42"><g aria-label="×1" style="shape-inside:url(#rect1578);white-space:pre"><path fill="#4d4d4d" stroke-linecap="round" stroke-miterlimit="2.5" stroke-width=".01" d="M27.272 7.033c-.81 0-1.643.17-2.496.511a8.308 8.308 0 0 0-2.272 1.313c-.682.554-1.215 1.16-1.6 1.822a4.47 4.47 0 0 0-.35.514c-.065.15-.098.298-.098.447 0 .235.097.437.289.607.192.15.416.225.672.225.17 0 .319-.043.447-.129.15-.085.288-.234.416-.447a5.01 5.01 0 0 1 1.152-1.535 6.58 6.58 0 0 1 1.729-1.088 5.097 5.097 0 0 1 1.984-.416c1.45 0 2.602.426 3.455 1.28.853.852 1.28 1.984 1.28 3.392 0 .853-.298 1.824-.895 2.912-.576 1.066-1.452 2.24-2.625 3.52l-7.39 8.16c-.171.213-.259.437-.259.671 0 .32.098.566.29.737.213.149.459.222.736.222h12a.865.865 0 0 0 .639-.255.857.857 0 0 0 .289-.672.82.82 0 0 0-.29-.639.82.82 0 0 0-.638-.29h-9.834l5.898-6.622c1.366-1.515 2.388-2.923 3.07-4.225.705-1.322 1.057-2.539 1.057-3.648 0-1.301-.277-2.42-.832-3.36a5.362 5.362 0 0 0-2.305-2.209c-.98-.533-2.154-.798-3.52-.798zm-10.688 6a.96.96 0 0 0-.705.287l-4.18 4.152-3.947-4.057a.914.914 0 0 0-.705-.32.788.788 0 0 0-.608.29.87.87 0 0 0-.255.64c0 .234.085.458.255.672l3.96 4.068-4.215 4.188c-.192.192-.287.415-.287.671s.095.48.287.672c.192.192.406.287.64.287.256 0 .49-.107.703-.32l4.188-4.146 4.068 4.18c.235.191.459.286.672.286.192 0 .396-.073.61-.222.213-.15.32-.385.32-.705 0-.256-.107-.48-.32-.672l-4.045-4.156 4.205-4.164c.192-.235.287-.469.287-.704 0-.234-.095-.448-.287-.64a.821.821 0 0 0-.64-.287z" style="white-space:pre" transform="translate(.992 2.608)"/></g></svg>