<svg xmlns="http://www.w3.org/2000/svg" width="42" height="42"><g stroke-linecap="round" stroke-miterlimit="2.5" stroke-width=".01" aria-label="×2" style="shape-inside:url(#rect1578);white-space:pre" transform="translate(.016 2.76)"><path d="M7.256 24.832q-.352 0-.64-.288t-.288-.672.288-.672l9.696-9.632q.288-.288.704-.288.384 0 .64.288.288.288.288.64t-.288.704l-9.696 9.6q-.32.32-.704.32zm8.96-.288-9.344-9.6q-.256-.32-.256-.672 0-.384.256-.64.256-.288.608-.288.416 0 .704.32l9.312 9.568q.32.288.32.672 0 .48-.32.704t-.608.224q-.32 0-.672-.288zM34.712 27.744q.384 0 .64.288.288.256.288.64 0 .416-.288.672-.256.256-.64.256h-12q-.416 0-.736-.224-.288-.256-.288-.736 0-.352.256-.672l7.392-8.16q1.76-1.92 2.624-3.52.896-1.632.896-2.912 0-2.112-1.28-3.392t-3.456-1.28q-.992 0-1.984.416-.96.416-1.728 1.088-.736.672-1.152 1.536-.192.32-.416.448-.192.128-.448.128-.384 0-.672-.224-.288-.256-.288-.608 0-.224.096-.448.128-.224.352-.512.576-.992 1.6-1.824t2.272-1.312q1.28-.512 2.496-.512 2.048 0 3.52.8 1.504.768 2.304 2.208.832 1.408.832 3.36 0 1.664-1.056 3.648-1.024 1.952-3.072 4.224l-6.24 7.008-.32-.384z"/></g></svg>