<svg xmlns="http://www.w3.org/2000/svg" width="42" height="42"><g aria-label="×1" style="shape-inside:url(#rect1578);white-space:pre"><path fill="#4d4d4d" stroke-linecap="round" stroke-miterlimit="2.5" stroke-width=".01" d="M6.824 24.584c-.235 0-.448-.096-.64-.288s-.288-.416-.288-.672.096-.48.288-.672l9.696-9.632a.958.958 0 0 1 .704-.288.82.82 0 0 1 .64.288c.192.192.288.405.288.64s-.096.47-.288.704l-9.696 9.6c-.213.213-.448.32-.704.32zm8.96-.288-9.344-9.6a1.061 1.061 0 0 1-.256-.672c0-.256.085-.47.256-.64a.788.788 0 0 1 .608-.288c.277 0 .512.107.704.32l9.312 9.568c.213.192.32.416.32.672 0 .32-.107.555-.32.704s-.416.224-.608.224c-.213 0-.437-.096-.672-.288zm6.024 1.76c.107 0 .213.021.32.064.128.043.277.139.448.288.448.47.981.832 1.6 1.088.619.235 1.323.352 2.112.352 1.045 0 1.995-.235 2.848-.704a5.387 5.387 0 0 0 2.08-1.952c.512-.853.768-1.824.768-2.912 0-1.237-.277-2.23-.832-2.976a4.747 4.747 0 0 0-2.08-1.696 6.048 6.048 0 0 0-2.56-.576c-.235 0-.47.021-.704.064-.213.021-.416.053-.608.096s-.341.064-.448.064c-.277 0-.49-.085-.64-.256a1.112 1.112 0 0 1-.224-.704c0-.15.032-.277.096-.384.064-.128.15-.267.256-.416l6.496-7.072.384.512h-9.696a.98.98 0 0 1-.672-.256c-.17-.192-.256-.416-.256-.672s.085-.47.256-.64a.98.98 0 0 1 .672-.256h10.752c.363 0 .619.117.768.352.15.213.224.427.224.64a.852.852 0 0 1-.096.384c-.064.107-.15.224-.256.352l-6.496 7.072-.704-.416c.064-.064.277-.128.64-.192.384-.085.683-.128.896-.128 1.173 0 2.272.277 3.296.832a6.498 6.498 0 0 1 2.528 2.4c.661 1.024.992 2.293.992 3.808 0 1.493-.352 2.805-1.056 3.936a7.262 7.262 0 0 1-2.848 2.592c-1.195.619-2.517.928-3.968.928-.875 0-1.739-.15-2.592-.448a6.285 6.285 0 0 1-2.24-1.344c-.15-.128-.256-.256-.32-.384s-.096-.256-.096-.384c0-.256.085-.49.256-.704.192-.235.427-.352.704-.352z" style="white-space:pre" transform="translate(.992 2.608)"/></g></svg>