<svg xmlns="http://www.w3.org/2000/svg" xml:space="preserve" width="42" height="42" viewBox="0 0 11.113 11.113"><path d="M-137.966 136.055a3.324 3.324 0 0 1-6.647 0c0-1.836 1.705-3.847 3.323-4.713 1.659.787 3.324 2.877 3.324 4.713z" style="fill:none;stroke:#fff;stroke-width:.529167;stroke-linecap:round;stroke-miterlimit:2.5" transform="translate(146.896 -130.73)"/><path d="M-144.547 135.836s.713.78 1.976.78c1.264 0 2.343-.818 2.68-.894.074-.033 1.859-.059 1.859-.059v0M-146.294 134.813s-.152.954-.14 1.66c.012.743.164 1.404.374 1.918M-136.424 134.813s.152.954.14 1.66a5.365 5.365 0 0 1-.374 1.918M-143.17 140.934s.947.258 1.859.258 1.93-.363 1.93-.363" style="fill:none;stroke:#fff;stroke-width:.529167;stroke-linecap:round;stroke-miterlimit:2.5" transform="translate(146.896 -130.73)"/></svg>