<svg xmlns="http://www.w3.org/2000/svg" xml:space="preserve" width="42" height="42" viewBox="0 0 11.113 11.113"><path d="M-110.765 136.054a3.324 3.324 0 0 1-6.647 0c0-1.835 1.704-3.847 3.323-4.712 1.659.786 3.324 2.877 3.324 4.712z" style="fill:none;stroke:#fff;stroke-width:.529167;stroke-linecap:round;stroke-miterlimit:2.5" transform="translate(119.628 -130.73)"/><path d="M-117.329 136.799s.713.779 1.977.779c1.263 0 2.342-.817 2.679-.893.074-.033 1.859-.06 1.859-.06v0M-119.023 134.819s-.152.953-.14 1.659c.012.744.163 1.405.373 1.919M-109.154 134.819s.152.953.14 1.659a5.365 5.365 0 0 1-.374 1.919" style="fill:none;stroke:#fff;stroke-width:.529167;stroke-linecap:round;stroke-miterlimit:2.5" transform="translate(119.628 -130.73)"/></svg>