<svg xmlns="http://www.w3.org/2000/svg" xml:space="preserve" width="42" height="42" viewBox="0 0 11.113 11.113"><g transform="translate(-9.236 -117.598)"><rect width="8.996" height="9.525" x="10.294" y="118.392" ry="1.587" style="fill:none;stroke:#fff;stroke-width:.529167;stroke-linecap:round;stroke-miterlimit:2.5"/><path d="M12.034 120.389V125.39c0 .421.3.76.673.76.372 0 .673-.339.673-.76V120.918c0-.421.322-.76.722-.76.4 0 .722.339.722.76V125.39c0 .421.3.76.673.76.372 0 .672-.339.672-.76V120.918c0-.421.3-.76.673-.76.373 0 .673.339.673.76V125.92" style="fill:none;stroke:#fff;stroke-width:.529167;stroke-linecap:round;stroke-miterlimit:2.5"/></g></svg>