<svg xmlns="http://www.w3.org/2000/svg" xml:space="preserve" width="42" height="42" viewBox="0 0 11.112 11.113"><path d="M153.113 145.3s.695-2.03 2.828-2.125c.876-.039 1.43.29 1.43.29M156.884 144.916s2.14.147 2.784 2.182c.265.836.09 1.456.09 1.456M158.276 148.682s.413 2.106-1.386 3.254c-.74.472-1.384.464-1.384.464M154.977 151.075s-1.927.944-3.502-.497c-.647-.592-.807-1.216-.807-1.216M152.18 148.833s-1.615-1.412-.896-3.422c.295-.825.809-1.214.809-1.214" style="fill:none;fill-opacity:1;stroke:#fff;stroke-width:.529167;stroke-linecap:round;stroke-linejoin:miter;stroke-miterlimit:2.5;stroke-dasharray:none;stroke-opacity:1" transform="translate(-149.743 -142.332)"/></svg>