<svg xmlns="http://www.w3.org/2000/svg" xml:space="preserve" width="42" height="42" viewBox="0 0 11.112 11.113"><g transform="translate(-199.626 -142.332)"><path d="M202.912 151.038c.006.58.989 1.032 2.208 1.032 1.22 0 2.208-.44 2.208-1.032M201.616 148.172a.615.615 0 0 0-.104.328c0 .769 1.615 1.392 3.608 1.392s3.608-.623 3.608-1.392a.62.62 0 0 0-.102-.328" style="fill:none;fill-opacity:1;stroke:#fff;stroke-width:.529167;stroke-linecap:round;stroke-linejoin:miter;stroke-miterlimit:2.5;stroke-dasharray:none;stroke-opacity:1"/><ellipse cx="205.12" cy="145.325" rx="4.701" ry="1.9" style="fill:none;fill-opacity:1;stroke:#fff;stroke-width:.529167;stroke-linecap:round;stroke-linejoin:miter;stroke-miterlimit:2.5;stroke-dasharray:none;stroke-opacity:1"/><path d="M204.964 144.828c1.462-.03 3.075.222 3.087 1.029.01.655-.735 1.052-1.308 1.25" style="fill:none;fill-opacity:1;stroke:#fff;stroke-width:.529167;stroke-linecap:round;stroke-linejoin:miter;stroke-miterlimit:2.5;stroke-dasharray:none;stroke-opacity:1"/></g></svg>