<svg xmlns="http://www.w3.org/2000/svg" xml:space="preserve" width="42" height="42" viewBox="0 0 11.112 11.113"><path d="M104.403 145.24c.567-.459 1.067-.907 2.232-.951 1.249-.075 3.1.66 3.027 2.745M107.79 147.041c.459.567.907 1.068.951 2.233.075 1.248-.66 3.1-2.745 3.026M105.768 150.438c-.567.458-1.067.906-2.232.95-1.249.075-3.1-.66-3.026-2.744M102.421 148.614c-.458-.567-.906-1.067-.95-2.232-.075-1.249.66-3.1 2.744-3.026" style="fill:none;fill-opacity:1;stroke:#fff;stroke-width:.529167;stroke-linecap:round;stroke-linejoin:miter;stroke-miterlimit:2.5;stroke-dasharray:none;stroke-opacity:1" transform="translate(-99.576 -142.332)"/></svg>